<?xml version="1.0" standalone="no"?>
<!DOCTYPE svg PUBLIC "-//W3C//DTD SVG 20010904//EN"
 "http://www.w3.org/TR/2001/REC-SVG-20010904/DTD/svg10.dtd">
<svg version="1.0" xmlns="http://www.w3.org/2000/svg"
 width="1191.000000pt" height="1254.000000pt" viewBox="0 0 1191.000000 1254.000000"
 preserveAspectRatio="xMidYMid meet">

<g transform="translate(0.000000,1254.000000) scale(0.100000,-0.100000)"
fill="#000000" stroke="none">
<path d="M7473 12483 c-291 -339 -559 -906 -768 -1623 -167 -572 -260 -1092
-274 -1521 l-6 -207 -110 90 c-405 329 -876 539 -1406 627 -202 33 -293 41
-502 41 -215 0 -332 -10 -505 -41 l-112 -21 -155 160 c-352 363 -706 624
-1301 956 -445 248 -596 322 -934 456 -389 155 -920 304 -1207 340 -95 12
-177 19 -183 15 -20 -12 -9 -38 64 -148 443 -671 1172 -1340 2001 -1837 185
-110 475 -257 624 -315 108 -42 316 -103 379 -112 23 -3 42 -8 42 -12 0 -3
-27 -40 -60 -81 -87 -108 -349 -625 -425 -838 -81 -224 -149 -356 -283 -544
-186 -262 -214 -338 -215 -573 0 -151 16 -265 60 -425 14 -52 27 -105 29 -118
1 -13 6 -28 11 -35 5 -7 25 -55 43 -107 40 -116 116 -292 182 -424 27 -54 48
-100 46 -102 -2 -2 -62 1 -133 7 -397 32 -795 -93 -1003 -315 -259 -277 -300
-609 -118 -952 125 -236 343 -420 586 -495 41 -12 78 -26 83 -29 4 -4 -160
-490 -364 -1081 -205 -591 -384 -1115 -400 -1165 -94 -310 -47 -623 128 -852
31 -41 79 -92 108 -115 28 -23 53 -46 55 -50 3 -4 -31 -20 -75 -36 -110 -38
-402 -174 -501 -232 -96 -57 -177 -120 -201 -155 -14 -22 -15 -31 -5 -57 9
-23 9 -34 0 -44 -8 -10 -8 -19 1 -36 18 -34 50 -50 103 -53 26 -1 53 -6 60
-10 37 -23 127 -20 458 16 354 39 1002 145 1088 177 62 23 129 91 137 140 4
21 8 43 10 48 1 6 192 26 461 49 l459 38 695 -131 c382 -71 783 -142 891 -157
l197 -28 4 -53 c5 -56 29 -92 78 -118 14 -7 172 -43 350 -79 477 -97 545 -114
890 -220 102 -32 228 -66 281 -77 l97 -20 58 21 c32 11 67 20 77 20 10 0 29
11 42 24 21 21 23 31 20 87 -1 35 -3 67 -4 72 -3 20 -95 106 -186 172 -193
140 -485 306 -665 376 -47 18 -86 34 -88 35 -2 1 20 25 47 53 183 188 246 442
191 765 -21 122 -59 282 -84 354 -9 25 -11 42 -5 42 8 0 565 -161 606 -175 34
-12 39 21 72 466 18 244 35 445 36 447 2 2 108 -28 236 -66 173 -52 236 -68
248 -60 9 6 166 269 350 585 184 316 337 576 340 577 3 2 476 -136 1051 -305
575 -170 1055 -309 1067 -309 15 0 103 87 316 313 161 171 508 523 770 781
354 348 477 475 477 492 0 28 -64 66 -279 164 -458 211 -1206 440 -1911 585
-379 79 -568 103 -1180 151 -327 26 -596 48 -598 50 -2 1 7 18 19 38 24 42 32
43 119 16 36 -11 75 -20 87 -20 42 0 49 41 26 138 -4 18 -1 22 19 22 14 0 35
11 47 24 20 21 22 31 16 63 -4 21 -11 43 -17 50 -7 9 1 15 31 23 42 11 71 41
71 73 0 10 -9 37 -20 59 -26 53 -25 58 4 58 36 0 72 16 80 35 11 28 -47 96
-153 180 -65 51 -101 87 -101 99 0 11 8 44 17 74 l17 54 -29 25 -28 25 -156
-7 c-388 -16 -677 -71 -950 -180 -116 -46 -192 -83 -254 -122 l-38 -24 5 58
c3 32 8 99 11 148 11 170 46 371 141 805 l95 435 -2 195 -3 195 58 90 c160
248 317 656 426 1109 167 690 250 1364 250 2036 0 445 -41 766 -125 972 -40
97 -54 100 -122 21z m-417 -1068 c135 -97 276 -248 388 -419 69 -104 175 -320
170 -344 -2 -9 -24 -165 -49 -346 -118 -847 -303 -1478 -558 -1909 l-40 -69
-11 34 c-9 26 -16 33 -36 33 -30 0 -30 -2 -5 -135 13 -66 18 -144 19 -255 l0
-160 -96 -425 c-94 -414 -120 -549 -134 -698 -6 -62 -9 -72 -23 -67 -9 4 -50
9 -92 12 -90 7 -171 -16 -268 -75 -188 -115 -383 -379 -436 -592 -24 -94 -18
-239 13 -302 31 -62 93 -125 149 -150 24 -11 43 -21 41 -22 -2 -2 -64 -42
-139 -88 -136 -85 -406 -213 -544 -258 -38 -13 -83 -29 -100 -37 -28 -13 -27
-13 30 -8 33 3 93 15 133 26 40 10 80 19 90 19 32 0 303 129 433 207 386 229
625 500 713 807 15 48 26 99 26 113 0 36 42 70 156 129 289 150 628 228 1052
243 203 7 190 11 172 -64 -5 -22 -14 -89 -20 -149 -9 -93 -9 -112 4 -124 25
-25 44 2 51 74 4 36 10 64 14 62 4 -2 48 -37 99 -78 l93 -75 -41 -10 c-42 -10
-70 -36 -70 -63 0 -8 13 -36 29 -63 l30 -47 -54 -26 c-29 -13 -56 -29 -59 -34
-3 -5 2 -31 10 -57 19 -54 12 -65 -44 -65 -18 0 -35 -6 -38 -13 -2 -7 2 -41
10 -76 13 -57 13 -61 -2 -57 -93 28 -155 38 -176 28 -13 -6 -67 -80 -127 -173
-57 -90 -122 -184 -144 -209 -23 -25 -156 -180 -297 -345 -254 -299 -334 -382
-530 -551 -290 -252 -568 -454 -814 -593 -95 -53 -115 -75 -91 -99 12 -12 20
-11 57 8 l43 22 -7 -89 c-22 -265 -26 -334 -26 -508 0 -317 24 -560 75 -752
13 -51 83 -286 155 -522 103 -341 132 -448 140 -525 12 -114 0 -251 -29 -347
-41 -131 -143 -263 -270 -348 -52 -36 -61 -45 -47 -53 9 -5 16 -16 16 -23 0
-20 6 -19 41 7 l30 22 67 -23 c81 -29 332 -152 422 -208 156 -96 357 -234 385
-263 18 -20 -42 16 -154 89 -257 171 -318 199 -334 157 -8 -21 4 -31 88 -76
44 -24 159 -97 255 -163 229 -157 251 -177 193 -177 -18 0 -36 12 -60 40 -24
28 -94 73 -236 153 -223 126 -318 167 -341 148 -8 -7 -12 -19 -9 -27 3 -7 114
-67 247 -133 164 -80 253 -130 279 -155 20 -20 37 -41 37 -46 0 -34 -148 -10
-375 62 -139 44 -316 87 -1054 254 -212 48 -252 72 -235 141 6 22 10 23 125
23 125 0 284 19 409 48 61 14 76 21 78 38 5 37 -20 47 -80 30 -129 -37 -233
-50 -398 -49 l-165 0 -770 132 c-423 73 -774 134 -780 136 -5 2 121 1 280 -2
263 -6 291 -5 304 11 12 14 11 19 -5 37 -19 21 -23 21 -424 15 -223 -3 -427
-8 -455 -10 -27 -3 -291 -27 -585 -55 -294 -28 -560 -50 -590 -51 -31 0 -61
-5 -68 -12 -16 -16 -15 -45 1 -51 11 -4 148 5 250 17 35 4 37 3 37 -25 0 -35
-30 -68 -87 -97 -56 -29 -274 -78 -433 -97 -74 -9 -324 -41 -555 -71 -231 -30
-437 -54 -459 -54 l-39 0 54 38 c76 53 163 90 324 137 103 31 121 41 104 61
-19 23 -76 16 -188 -22 -133 -45 -255 -103 -315 -149 -45 -34 -80 -42 -119
-26 -16 6 -12 11 25 37 66 47 160 96 315 164 78 34 144 69 148 78 3 9 0 22 -8
29 -11 12 -33 4 -138 -45 -68 -32 -142 -67 -164 -77 -22 -11 -71 -37 -108 -58
-130 -73 -100 -21 43 74 115 77 380 204 529 253 l133 45 77 -39 c81 -40 227
-90 265 -90 30 0 54 26 38 42 -6 6 -51 21 -100 33 -99 26 -184 65 -287 135
-163 110 -252 233 -312 427 -24 78 -27 105 -27 238 -1 113 4 170 18 230 10 44
174 519 364 1055 190 536 365 1040 389 1119 24 80 46 147 48 149 2 3 84 -1
180 -8 260 -19 416 -4 689 65 152 38 339 110 548 208 l134 64 69 -29 c116 -47
131 -37 122 78 l-6 75 70 -7 c55 -5 74 -3 94 10 14 9 25 22 25 28 0 6 -16 42
-35 80 l-36 68 36 0 c42 0 103 24 111 43 7 21 -13 66 -51 113 -34 41 -34 42
-12 48 12 3 36 6 52 6 43 0 75 25 75 59 0 40 -36 88 -107 140 -34 25 -62 52
-62 60 -1 7 11 35 25 62 15 26 24 54 21 62 -3 8 -26 17 -57 20 -75 9 -141 44
-258 136 -168 132 -371 239 -590 311 -124 40 -344 90 -400 90 -17 0 -37 7 -46
15 -42 42 -254 512 -272 603 l-6 29 59 5 c126 9 255 108 332 258 86 164 111
273 111 479 0 172 -25 297 -81 402 -29 54 -118 149 -139 149 -5 0 -20 4 -35
10 l-25 10 53 107 c30 60 106 241 170 403 130 333 222 508 367 695 44 57 80
107 80 111 0 5 24 33 52 62 51 52 52 54 18 37 -19 -10 -48 -27 -65 -39 -32
-23 -42 -22 -160 1 -314 61 -790 296 -1270 627 -216 149 -242 171 -274 235
-38 75 -54 131 -95 341 -42 217 -66 532 -48 648 6 41 13 76 16 79 19 20 661
-282 935 -439 575 -330 1049 -688 1352 -1022 l63 -69 -48 -14 c-49 -14 -67
-36 -47 -56 9 -9 33 -6 99 11 49 12 217 35 385 53 l297 32 338 -37 c185 -21
357 -42 382 -48 515 -118 1012 -405 1414 -815 77 -79 147 -143 157 -143 9 0
20 8 23 17 5 12 -23 47 -108 132 l-116 116 -10 122 c-30 364 80 1035 279 1699
87 290 194 584 213 584 6 0 39 -20 74 -45z m-4611 -5385 c312 -21 558 -83 810
-205 145 -70 246 -133 350 -220 77 -63 155 -104 216 -112 21 -3 39 -7 39 -8 0
-1 -9 -23 -21 -49 -11 -27 -17 -55 -14 -67 4 -11 36 -43 71 -71 61 -48 103
-101 86 -111 -4 -3 -33 -8 -64 -12 -92 -12 -97 -34 -27 -127 21 -29 39 -56 39
-60 0 -4 -23 -8 -51 -10 -42 -2 -56 -8 -71 -29 -20 -26 -20 -26 9 -86 l29 -61
-70 -5 c-93 -6 -110 -24 -100 -110 7 -57 6 -60 -12 -53 -44 18 -111 36 -132
36 -12 0 -46 -12 -73 -26 -101 -51 -346 -156 -440 -189 -159 -55 -244 -73
-486 -101 l-231 -27 -184 16 c-198 17 -262 33 -383 93 -354 178 -580 564 -525
894 68 407 395 649 950 703 71 7 139 6 285 -3z m6078 -420 c601 -44 730 -61
1174 -151 771 -157 1504 -387 1974 -620 l162 -81 -240 -241 c-131 -133 -469
-476 -751 -761 -504 -512 -511 -519 -539 -508 -54 22 -2080 612 -2100 612 -15
0 -92 -125 -357 -580 -186 -319 -341 -582 -345 -585 -4 -2 -108 27 -232 65
-123 38 -234 70 -247 70 -29 0 -42 -33 -43 -108 0 -60 -17 -122 -18 -72 -2 58
-18 46 -45 -36 -16 -47 -32 -87 -36 -89 -4 -2 -12 40 -19 93 -21 161 -17 159
-74 46 -57 -113 -54 -114 -82 41 l-18 100 -28 -108 c-15 -60 -29 -110 -32
-113 -2 -3 -15 37 -27 88 -13 51 -25 97 -27 101 -3 5 -14 1 -24 -9 -11 -10
-19 -12 -19 -6 0 6 -18 179 -40 383 -23 204 -39 373 -37 376 3 2 160 -26 351
-63 239 -46 350 -64 357 -57 6 6 92 409 192 895 l182 885 175 236 175 236 43
1 c24 0 292 -18 595 -40z m-1240 -1340 c-91 -443 -167 -807 -169 -809 -4 -4
-635 108 -711 126 -20 5 -23 1 -23 -28 0 -18 27 -277 60 -577 34 -299 59 -546
57 -548 -3 -4 -349 104 -353 109 -6 8 -36 163 -49 257 -28 201 -29 395 -6 750
12 179 24 342 27 363 5 35 13 42 152 133 257 169 461 330 742 587 172 158 178
164 328 329 58 65 107 116 108 115 1 -1 -72 -364 -163 -807z"/>
<path d="M3380 8632 c-88 -24 -117 -41 -177 -104 -187 -199 -147 -482 85 -595
49 -24 69 -28 147 -28 81 0 97 3 158 32 84 40 163 117 203 198 26 55 29 69 29
165 0 93 -3 111 -26 160 -75 157 -233 222 -419 172z m278 -106 c34 -18 72 -84
72 -126 0 -107 -122 -176 -221 -125 -90 47 -91 201 -1 250 35 18 115 19 150 1z"/>
<path d="M5900 7897 c-65 -15 -97 -35 -166 -108 -72 -77 -89 -128 -89 -264 0
-100 3 -115 28 -165 37 -73 116 -151 186 -186 78 -38 192 -45 271 -15 79 30
152 98 192 179 31 64 33 72 32 177 0 91 -5 119 -23 161 -28 65 -140 176 -207
205 -58 26 -150 33 -224 16z m172 -106 c33 -34 38 -47 38 -86 0 -93 -50 -145
-140 -145 -89 0 -140 52 -140 144 0 80 73 140 160 132 36 -3 51 -11 82 -45z"/>
<path d="M4527 7785 c-20 -28 -12 -56 27 -87 38 -31 166 -13 166 23 0 41 -51
75 -126 84 -44 5 -51 3 -67 -20z"/>
<path d="M3707 7536 c-6 -15 54 -110 79 -124 14 -8 15 -24 4 -163 -33 -410 -4
-903 67 -1149 47 -166 123 -284 208 -324 47 -22 139 -20 214 5 197 67 496 373
708 726 109 181 130 220 204 371 64 130 72 142 96 142 33 0 109 36 117 55 3 8
-2 21 -10 30 -14 13 -19 13 -54 -5 -47 -24 -133 -26 -201 -6 -111 34 -256 126
-441 280 -150 126 -111 120 -461 76 -213 -27 -249 -30 -316 -20 -89 14 -112
26 -146 80 -25 40 -58 53 -68 26z"/>
</g>
</svg>
