<?xml version="1.0" standalone="no"?>
<!DOCTYPE svg PUBLIC "-//W3C//DTD SVG 20010904//EN"
 "http://www.w3.org/TR/2001/REC-SVG-20010904/DTD/svg10.dtd">
<svg version="1.0" xmlns="http://www.w3.org/2000/svg"
 width="1024.000000pt" height="919.000000pt" viewBox="0 0 1024.000000 919.000000"
 preserveAspectRatio="xMidYMid meet">

<g transform="translate(0.000000,919.000000) scale(0.100000,-0.100000)"
fill="#000000" stroke="none">
<path d="M5525 9101 c-88 -55 -188 -201 -318 -461 -198 -396 -383 -943 -472
-1395 -49 -251 -66 -401 -72 -635 -5 -221 -2 -263 34 -497 4 -26 -2 -44 -30
-85 -61 -93 -82 -147 -166 -418 -119 -384 -131 -416 -229 -621 -49 -102 -93
-200 -97 -218 l-7 -32 -89 86 c-57 55 -140 119 -233 179 -79 52 -146 98 -149
103 -4 5 -11 41 -17 79 -10 68 -33 104 -65 104 -6 0 -38 -22 -69 -50 -31 -27
-59 -50 -61 -50 -1 0 -28 13 -59 30 -102 53 -148 50 -161 -11 -6 -27 -10 -29
-56 -29 -27 0 -49 3 -49 6 0 21 186 506 224 584 59 121 58 135 -9 131 -175
-10 -686 -123 -1069 -236 -163 -48 -715 -235 -1031 -350 -352 -128 -985 -415
-1162 -528 -52 -33 -52 -35 -18 -206 38 -183 285 -923 392 -1171 84 -194 150
-315 195 -357 l23 -21 114 109 c213 205 451 393 756 598 214 144 568 351 580
339 2 -2 -16 -118 -40 -258 -143 -839 -215 -1268 -215 -1288 0 -12 6 -22 14
-22 8 0 214 112 457 250 244 137 444 248 445 247 1 -1 -35 -227 -81 -502 -45
-275 -80 -506 -78 -512 3 -7 8 -13 12 -13 4 0 146 65 314 144 169 80 307 139
307 133 0 -7 -11 -69 -24 -138 l-25 -127 -82 -123 c-85 -128 -171 -297 -208
-407 -92 -273 -50 -521 119 -704 l58 -63 -178 -105 c-168 -100 -346 -230 -400
-294 -59 -68 -63 -101 -21 -155 41 -51 97 -65 211 -51 148 19 564 126 810 208
248 83 290 100 330 137 23 20 38 23 170 29 90 4 297 28 544 63 l400 56 120
-41 c92 -32 204 -57 471 -107 193 -35 365 -67 383 -71 22 -4 32 -12 32 -24 0
-30 49 -79 88 -90 20 -5 195 -33 387 -60 193 -28 457 -66 587 -85 268 -40 295
-41 325 -20 14 10 32 13 48 9 16 -4 34 0 50 10 22 14 24 22 21 67 -4 60 -28
89 -126 153 -75 50 -258 147 -345 183 -33 14 -61 26 -63 28 -2 2 21 44 51 93
96 159 137 296 137 454 0 105 -20 196 -63 296 -48 111 -106 196 -247 357 -158
182 -173 214 -178 365 -3 98 0 131 23 225 15 60 30 116 35 125 5 9 37 24 72
34 170 47 432 163 638 281 281 162 509 334 717 542 l132 132 63 3 c60 3 63 4
66 30 2 15 -4 40 -12 57 -21 40 -20 48 8 55 30 7 37 32 19 69 -13 26 -12 30
16 63 17 19 31 39 31 44 0 5 -14 26 -32 45 -31 36 -31 37 -15 65 35 59 7 100
-68 100 -72 0 -85 8 -85 50 0 36 -23 70 -48 70 -6 0 -25 -12 -43 -27 -33 -28
-33 -28 -169 -25 -181 4 -370 -13 -503 -45 -59 -14 -110 -24 -112 -21 -2 2 -7
89 -11 193 -8 227 5 334 66 555 63 228 74 295 73 470 -1 139 -10 220 -38 330
l-6 25 178 1 c253 1 672 37 973 84 316 50 804 162 1042 240 252 83 488 202
488 246 0 18 -126 79 -240 117 -399 132 -827 169 -1465 128 -320 -21 -339 -24
-635 -82 -341 -66 -456 -97 -613 -163 l-108 -45 -80 55 c-167 113 -397 211
-647 275 -134 35 -195 44 -416 64 -221 21 -279 23 -395 15 -75 -5 -163 -16
-196 -24 -32 -9 -60 -14 -62 -12 -2 1 38 200 87 441 105 509 100 484 139 814
17 140 35 259 40 264 5 5 7 23 4 41 -2 17 12 162 31 323 29 235 36 329 36 482
1 198 -7 258 -41 292 -24 24 -46 24 -84 0z m15 -1147 c0 -3 -41 -258 -90 -567
-97 -605 -136 -797 -202 -1005 -30 -97 -39 -135 -30 -144 14 -14 43 33 66 106
l17 53 107 21 c161 32 280 33 555 7 310 -30 452 -61 684 -151 209 -80 379
-179 518 -300 40 -35 81 -64 89 -64 31 0 15 28 -39 71 -30 24 -54 48 -55 52 0
12 98 54 229 99 74 25 224 60 425 99 301 59 322 62 651 85 187 13 378 23 425
23 114 1 220 -10 220 -22 0 -5 -24 -50 -52 -100 -90 -156 -273 -323 -529 -484
l-126 -80 -199 -27 c-219 -30 -486 -43 -637 -31 l-98 7 -27 56 c-15 32 -34 57
-42 57 -22 0 -16 -29 24 -125 45 -110 66 -231 66 -389 0 -153 -18 -269 -70
-461 -47 -174 -67 -283 -76 -423 l-7 -105 -32 5 c-47 7 -100 -24 -181 -107
-124 -128 -188 -265 -187 -404 1 -77 16 -120 59 -167 l24 -25 -142 -93 c-79
-52 -168 -110 -198 -131 -30 -20 -99 -60 -152 -89 -54 -29 -98 -54 -98 -56 0
-20 250 99 385 183 314 195 515 386 566 537 7 22 16 43 19 48 11 14 184 57
275 68 50 7 183 12 297 13 203 1 207 1 232 25 l25 23 6 -38 c23 -145 41 -194
65 -179 12 8 10 50 -6 89 -7 17 -3 18 49 14 66 -5 76 -12 55 -35 -31 -35 -31
-60 1 -95 l29 -33 -29 -33 c-33 -38 -36 -58 -12 -84 15 -17 15 -20 3 -28 -8
-6 -23 -10 -33 -10 -28 0 -30 -24 -8 -69 30 -58 28 -63 -27 -55 l-47 6 -94
-102 c-242 -261 -589 -509 -976 -695 -139 -67 -353 -154 -417 -169 -37 -9 -36
3 12 93 40 77 42 91 11 91 -33 0 -116 -185 -151 -334 -48 -203 -47 -351 4
-460 13 -29 80 -118 153 -203 176 -205 240 -315 279 -480 18 -78 21 -244 5
-315 -31 -137 -104 -273 -225 -422 -80 -98 -80 -99 -45 -118 4 -1 28 23 54 55
26 31 53 57 60 57 34 0 375 -168 375 -185 0 -2 -47 17 -105 42 -57 25 -111 43
-120 40 -36 -14 -11 -36 84 -77 102 -43 247 -126 272 -156 12 -15 11 -16 -21
-9 -19 4 -47 16 -62 27 -48 33 -251 126 -265 121 -17 -7 -13 -33 7 -44 8 -5
69 -34 135 -65 103 -49 117 -58 95 -64 -32 -9 11 -14 -665 86 -503 74 -583 89
-602 107 -13 11 -23 24 -23 28 0 4 66 5 148 2 127 -5 149 -4 160 10 8 9 11 20
8 25 -3 5 -83 12 -178 15 -242 8 -501 50 -802 129 l-239 63 74 3 c41 1 130 -4
199 -11 83 -10 131 -11 144 -5 40 21 -7 37 -159 54 -214 23 -356 14 -916 -59
l-477 -63 -173 13 c-127 9 -195 19 -251 37 -63 19 -81 21 -94 11 -9 -6 -14
-17 -10 -23 10 -17 163 -60 236 -67 36 -3 76 -9 90 -11 24 -5 24 -6 5 -20 -10
-8 -164 -62 -342 -120 -316 -103 -606 -177 -748 -190 l-60 -6 30 26 c47 41
207 135 282 165 44 18 69 34 72 46 12 63 -321 -96 -419 -200 -43 -46 -69 -22
-30 27 25 33 168 136 247 179 62 34 77 54 48 65 -30 12 -301 -161 -326 -208
-6 -11 -13 -17 -16 -15 -25 26 172 184 407 327 101 62 190 114 197 117 7 3 36
-9 63 -27 49 -31 51 -32 64 -14 13 17 10 21 -28 48 -176 125 -240 203 -292
356 -30 87 -25 268 10 383 42 141 115 283 254 495 221 337 427 713 492 900 17
48 33 93 36 101 3 11 10 9 27 -8 13 -11 29 -21 35 -21 28 0 6 45 -87 176 -71
99 -127 196 -199 339 -100 200 -127 265 -228 555 -85 242 -170 603 -190 806
-10 98 -17 114 -53 114 -16 0 -42 5 -58 11 -28 11 -28 11 35 37 60 25 63 28
58 54 -3 15 -9 42 -13 59 l-6 32 50 -7 c63 -8 85 9 59 49 -26 40 -20 45 48 45
67 0 76 6 76 51 0 25 19 24 73 -2 l44 -22 -63 -62 c-66 -65 -75 -81 -48 -92
10 -4 32 10 62 39 26 25 76 66 112 91 36 25 76 57 89 71 23 25 51 35 51 19 1
-51 25 -142 43 -161 12 -13 102 -78 200 -145 98 -66 199 -144 226 -172 l48
-51 6 -109 c11 -220 107 -461 327 -828 135 -226 162 -260 176 -223 4 9 -29 71
-84 158 -98 154 -222 376 -222 395 0 8 10 9 37 1 61 -17 171 -5 229 25 106 54
178 170 193 307 20 196 -56 353 -207 427 -49 24 -69 28 -142 28 -92 0 -146
-20 -203 -73 l-28 -26 15 39 c8 22 44 101 81 175 75 150 125 273 150 370 71
277 206 635 243 648 6 2 14 -13 17 -32 8 -42 30 -65 47 -48 8 8 4 34 -15 99
-55 180 -75 411 -58 673 14 205 28 307 77 564 l37 189 104 113 c179 193 348
318 493 365 54 17 120 25 120 13z m-2170 -2106 c0 -9 -186 -492 -276 -716 -9
-23 -25 -44 -36 -48 -19 -6 -20 -12 -15 -64 l6 -57 -49 -23 c-68 -32 -85 -52
-68 -79 7 -12 27 -24 45 -27 20 -4 33 -12 33 -21 0 -26 -199 -768 -214 -799
-26 -52 -116 -506 -116 -584 0 -12 7 -20 17 -20 9 0 156 68 325 152 169 83
309 150 311 147 6 -7 117 -277 117 -284 0 -4 -49 -132 -110 -284 -89 -223
-121 -293 -167 -361 l-58 -84 -5 94 -5 95 -45 -87 c-24 -49 -47 -88 -51 -88
-4 0 -10 31 -14 70 -4 38 -10 68 -14 65 -4 -2 -25 -48 -47 -101 l-39 -98 -7
40 c-4 21 -11 64 -15 94 l-9 55 -16 -30 c-22 -38 -22 -42 2 98 26 152 26 167
0 167 -11 0 -217 -110 -457 -245 -240 -135 -438 -243 -441 -241 -2 3 55 344
127 758 72 414 131 766 131 781 0 37 -14 35 -121 -19 -397 -199 -973 -612
-1299 -931 l-85 -83 -54 86 c-68 108 -323 752 -412 1044 -52 169 -119 450
-119 499 0 41 586 325 1025 497 409 160 1357 463 1725 552 98 24 325 67 420
81 36 4 68 9 73 10 4 0 7 -4 7 -11z m-296 -1153 c20 -188 93 -497 182 -762 30
-90 53 -167 50 -171 -7 -11 -565 -286 -570 -281 -14 14 66 372 183 811 72 273
131 500 132 505 2 25 17 -42 23 -102z m532 -1532 l117 -197 -26 -81 -27 -80
-232 -77 c-127 -43 -234 -76 -236 -74 -2 3 52 145 121 318 150 376 155 388
161 388 3 0 58 -89 122 -197z"/>
<path d="M5057 5405 c-95 -26 -161 -88 -198 -185 -88 -233 149 -435 371 -314
165 90 206 315 79 443 -67 67 -147 85 -252 56z m147 -45 c44 -16 62 -57 57
-129 -2 -32 -72 -101 -103 -101 -45 0 -88 21 -103 51 -31 59 -10 134 48 169
35 22 63 25 101 10z"/>
<path d="M6852 4950 c-61 -13 -106 -43 -141 -97 -71 -107 -66 -212 17 -322 31
-42 113 -81 170 -81 153 0 256 101 256 250 -1 161 -146 281 -302 250z m115
-66 c28 -18 43 -70 30 -106 -13 -40 -62 -78 -101 -78 -42 0 -97 37 -109 73
-17 53 10 101 70 122 41 15 74 11 110 -11z"/>
<path d="M6054 4755 c-10 -25 16 -75 43 -81 29 -8 71 9 80 32 10 26 -40 64
-83 64 -22 0 -37 -6 -40 -15z"/>
<path d="M5350 4579 c0 -25 25 -51 76 -81 53 -29 56 -33 50 -62 -18 -86 -28
-266 -22 -406 14 -348 79 -582 180 -649 117 -77 296 20 498 271 88 109 249
361 312 487 l45 89 65 -5 c45 -4 70 -2 81 7 25 21 9 28 -77 35 -150 12 -252
58 -394 177 -41 35 -88 66 -105 69 -17 4 -99 -2 -183 -12 -130 -17 -165 -18
-256 -8 -109 12 -176 36 -214 78 -20 22 -56 29 -56 10z"/>
</g>
</svg>
